{
  "asset": {
    "version": "2.0",
    "generator": "THREE.GLTFExporter"
  },
  "scenes": [
    {
      "name": "Scene",
      "nodes": [
        8
      ]
    }
  ],
  "scene": 0,
  "nodes": [
    {
      "name": "Mesh_1",
      "extras": {
        "name": "Mesh_1"
      },
      "mesh": 0
    },
    {
      "name": "Mesh_0",
      "extras": {
        "name": "Mesh_0"
      },
      "mesh": 1
    },
    {
      "name": "Mesh_2",
      "extras": {
        "name": "Mesh_2"
      },
      "mesh": 2
    },
    {
      "name": "Mesh_4",
      "extras": {
        "name": "Mesh_4"
      },
      "mesh": 3
    },
    {
      "name": "Mesh_3",
      "extras": {
        "name": "Mesh_3"
      },
      "mesh": 4
    },
    {
      "name": "Geode",
      "extras": {
        "name": "Geode"
      },
      "children": [
        0,
        1,
        2,
        3,
        4
      ]
    },
    {
      "name": "RootNode_(model_correction_matrix)",
      "extras": {
        "name": "RootNode (model correction matrix)"
      },
      "children": [
        5
      ]
    },
    {
      "matrix": [
        0.9928773508648994,
        0,
        -0.1191409521257647,
        0,
        -0.1191409521257647,
        -2.3441708352223145e-8,
        -0.9928773743066077,
        0,
        0,
        1.0000000234417084,
        -2.3441708352223145e-8,
        0,
        -57.76215744018555,
        0,
        82.79503631591797,
        1
      ],
      "name": "RootNode_(gltf_orientation_matrix)",
      "extras": {
        "name": "RootNode (gltf orientation matrix)"
      },
      "children": [
        6
      ]
    },
    {
      "matrix": [
        0.7,
        0,
        0,
        0,
        0,
        0.48,
        0,
        0,
        0,
        0,
        0.92,
        0,
        20.451958535801445,
        0,
        20.804692591895563,
        1
      ],
      "name": "b1.gltf",
      "children": [
        7
      ]
    }
  ],
  "bufferViews": [
    {
      "buffer": 0,
      "byteOffset": 0,
      "byteLength": 1152,
      "target": 34962,
      "byteStride": 12
    },
    {
      "buffer": 0,
      "byteOffset": 1152,
      "byteLength": 1152,
      "target": 34962,
      "byteStride": 12
    },
    {
      "buffer": 0,
      "byteOffset": 2304,
      "byteLength": 768,
      "target": 34962,
      "byteStride": 8
    },
    {
      "buffer": 0,
      "byteOffset": 3072,
      "byteLength": 444,
      "target": 34963
    },
    {
      "buffer": 0,
      "byteOffset": 3516,
      "byteLength": 11124,
      "target": 34962,
      "byteStride": 12
    },
    {
      "buffer": 0,
      "byteOffset": 14640,
      "byteLength": 11124,
      "target": 34962,
      "byteStride": 12
    },
    {
      "buffer": 0,
      "byteOffset": 25764,
      "byteLength": 7416,
      "target": 34962,
      "byteStride": 8
    },
    {
      "buffer": 0,
      "byteOffset": 33180,
      "byteLength": 7416,
      "target": 34962,
      "byteStride": 8
    },
    {
      "buffer": 0,
      "byteOffset": 40596,
      "byteLength": 2268,
      "target": 34963
    },
    {
      "buffer": 0,
      "byteOffset": 42864,
      "byteLength": 2592,
      "target": 34962,
      "byteStride": 12
    },
    {
      "buffer": 0,
      "byteOffset": 45456,
      "byteLength": 2592,
      "target": 34962,
      "byteStride": 12
    },
    {
      "buffer": 0,
      "byteOffset": 48048,
      "byteLength": 1728,
      "target": 34962,
      "byteStride": 8
    },
    {
      "buffer": 0,
      "byteOffset": 49776,
      "byteLength": 1728,
      "target": 34962,
      "byteStride": 8
    },
    {
      "buffer": 0,
      "byteOffset": 51504,
      "byteLength": 480,
      "target": 34963
    },
    {
      "buffer": 0,
      "byteOffset": 51984,
      "byteLength": 2112,
      "target": 34962,
      "byteStride": 12
    },
    {
      "buffer": 0,
      "byteOffset": 54096,
      "byteLength": 2112,
      "target": 34962,
      "byteStride": 12
    },
    {
      "buffer": 0,
      "byteOffset": 56208,
      "byteLength": 1408,
      "target": 34962,
      "byteStride": 8
    },
    {
      "buffer": 0,
      "byteOffset": 57616,
      "byteLength": 1408,
      "target": 34962,
      "byteStride": 8
    },
    {
      "buffer": 0,
      "byteOffset": 59024,
      "byteLength": 408,
      "target": 34963
    },
    {
      "buffer": 0,
      "byteOffset": 59432,
      "byteLength": 96,
      "target": 34962,
      "byteStride": 12
    },
    {
      "buffer": 0,
      "byteOffset": 59528,
      "byteLength": 96,
      "target": 34962,
      "byteStride": 12
    },
    {
      "buffer": 0,
      "byteOffset": 59624,
      "byteLength": 64,
      "target": 34962,
      "byteStride": 8
    },
    {
      "buffer": 0,
      "byteOffset": 59688,
      "byteLength": 64,
      "target": 34962,
      "byteStride": 8
    },
    {
      "buffer": 0,
      "byteOffset": 59752,
      "byteLength": 24,
      "target": 34963
    }
  ],
  "buffers": [
    {
      "byteLength": 59776,
      "uri": "data:application/octet-stream;base64,"
    }
  ],
  "accessors": [
    {
      "bufferView": 0,
      "componentType": 5126,
      "count": 96,
      "max": [
        174.6658935546875,
        113.9822006225586,
        0
      ],
      "min": [
        0,
        0,
        0
      ],
      "type": "VEC3"
    },
    {
      "bufferView": 1,
      "componentType": 5126,
      "count": 96,
      "max": [
        0,
        0,
        -0.9999999403953552
      ],
      "min": [
        0,
        0,
        -1
      ],
      "type": "VEC3"
    },
    {
      "bufferView": 2,
      "componentType": 5123,
      "count": 96,
      "max": [
        65535,
        65535,
        65535,
        65535
      ],
      "min": [
        65535,
        65535,
        65535,
        65535
      ],
      "type": "VEC4",
      "normalized": true
    },
    {
      "bufferView": 3,
      "componentType": 5123,
      "count": 222,
      "max": [
        95
      ],
      "min": [
        0
      ],
      "type": "SCALAR"
    },
    {
      "bufferView": 4,
      "componentType": 5126,
      "count": 927,
      "max": [
        174.6658935546875,
        113.9822006225586,
        84
      ],
      "min": [
        0,
        0,
        82.95999908447266
      ],
      "type": "VEC3"
    },
    {
      "bufferView": 5,
      "componentType": 5126,
      "count": 927,
      "max": [
        0.9998920559883118,
        0.9995431303977966,
        1
      ],
      "min": [
        -0.9987530708312988,
        -1,
        0
      ],
      "type": "VEC3"
    },
    {
      "bufferView": 6,
      "componentType": 5126,
      "count": 927,
      "max": [
        1.3436216115951538,
        0.0029270052909851074
      ],
      "min": [
        -8.816834449768066,
        -3.3772830963134766
      ],
      "type": "VEC2"
    },
    {
      "bufferView": 7,
      "componentType": 5123,
      "count": 927,
      "max": [
        65535,
        65535,
        65535,
        65535
      ],
      "min": [
        65535,
        65535,
        65535,
        65535
      ],
      "type": "VEC4",
      "normalized": true
    },
    {
      "bufferView": 8,
      "componentType": 5123,
      "count": 1134,
      "max": [
        926
      ],
      "min": [
        0
      ],
      "type": "SCALAR"
    },
    {
      "bufferView": 9,
      "componentType": 5126,
      "count": 216,
      "max": [
        171.8083953857422,
        85.47380065917969,
        84
      ],
      "min": [
        25.796899795532227,
        0,
        0
      ],
      "type": "VEC3"
    },
    {
      "bufferView": 10,
      "componentType": 5126,
      "count": 216,
      "max": [
        0.9987531304359436,
        0.7208202481269836,
        0
      ],
      "min": [
        -0.992212176322937,
        -0.9995428919792175,
        0
      ],
      "type": "VEC3"
    },
    {
      "bufferView": 11,
      "componentType": 5126,
      "count": 216,
      "max": [
        4.601042747497559,
        1
      ],
      "min": [
        -1.3877787807814457e-17,
        -0.00032842159271240234
      ],
      "type": "VEC2"
    },
    {
      "bufferView": 12,
      "componentType": 5123,
      "count": 216,
      "max": [
        65535,
        65535,
        65535,
        65535
      ],
      "min": [
        65535,
        65535,
        65535,
        65535
      ],
      "type": "VEC4",
      "normalized": true
    },
    {
      "bufferView": 13,
      "componentType": 5123,
      "count": 240,
      "max": [
        215
      ],
      "min": [
        0
      ],
      "type": "SCALAR"
    },
    {
      "bufferView": 14,
      "componentType": 5126,
      "count": 176,
      "max": [
        174.6658935546875,
        113.9822006225586,
        84
      ],
      "min": [
        0,
        2.8575000762939453,
        0
      ],
      "type": "VEC3"
    },
    {
      "bufferView": 15,
      "componentType": 5126,
      "count": 176,
      "max": [
        0.9942939281463623,
        1,
        0
      ],
      "min": [
        -0.9998919367790222,
        -0.658504843711853,
        0
      ],
      "type": "VEC3"
    },
    {
      "bufferView": 16,
      "componentType": 5126,
      "count": 176,
      "max": [
        2.3253819942474365,
        1.002444863319397
      ],
      "min": [
        -1.9865440130233765,
        -0.0021697282791137695
      ],
      "type": "VEC2"
    },
    {
      "bufferView": 17,
      "componentType": 5123,
      "count": 176,
      "max": [
        65535,
        65535,
        65535,
        65535
      ],
      "min": [
        65535,
        65535,
        65535,
        65535
      ],
      "type": "VEC4",
      "normalized": true
    },
    {
      "bufferView": 18,
      "componentType": 5123,
      "count": 204,
      "max": [
        175
      ],
      "min": [
        0
      ],
      "type": "SCALAR"
    },
    {
      "bufferView": 19,
      "componentType": 5126,
      "count": 8,
      "max": [
        174.6658935546875,
        97.88189697265625,
        84
      ],
      "min": [
        0,
        0,
        0
      ],
      "type": "VEC3"
    },
    {
      "bufferView": 20,
      "componentType": 5126,
      "count": 8,
      "max": [
        0.9936264753341675,
        -0.11272197961807251,
        0
      ],
      "min": [
        -0.11009575426578522,
        -0.9939209818840027,
        0
      ],
      "type": "VEC3"
    },
    {
      "bufferView": 21,
      "componentType": 5126,
      "count": 8,
      "max": [
        1,
        1
      ],
      "min": [
        -3.6257004737854004,
        0
      ],
      "type": "VEC2"
    },
    {
      "bufferView": 22,
      "componentType": 5123,
      "count": 8,
      "max": [
        65535,
        65535,
        65535,
        65535
      ],
      "min": [
        65535,
        65535,
        65535,
        65535
      ],
      "type": "VEC4",
      "normalized": true
    },
    {
      "bufferView": 23,
      "componentType": 5123,
      "count": 12,
      "max": [
        7
      ],
      "min": [
        0
      ],
      "type": "SCALAR"
    }
  ],
  "materials": [
    {
      "pbrMetallicRoughness": {
        "metallicFactor": 0,
        "roughnessFactor": 0.6000000238418579
      },
      "doubleSided": true,
      "name": "FrontCol"
    },
    {
      "pbrMetallicRoughness": {
        "metallicFactor": 0,
        "roughnessFactor": 0.6000000238418579,
        "baseColorTexture": {
          "index": 0
        }
      },
      "doubleSided": true,
      "name": "Roof2"
    },
    {
      "pbrMetallicRoughness": {
        "metallicFactor": 0,
        "roughnessFactor": 0.6000000238418579,
        "baseColorTexture": {
          "index": 1
        }
      },
      "doubleSided": true,
      "name": "material_3"
    },
    {
      "pbrMetallicRoughness": {
        "metallicFactor": 0,
        "roughnessFactor": 0.6000000238418579,
        "baseColorTexture": {
          "index": 2
        }
      },
      "doubleSided": true,
      "name": "material_1"
    },
    {
      "pbrMetallicRoughness": {
        "metallicFactor": 0,
        "roughnessFactor": 0.6000000238418579,
        "baseColorTexture": {
          "index": 3
        }
      },
      "doubleSided": true,
      "name": "material"
    }
  ],
  "meshes": [
    {
      "primitives": [
        {
          "mode": 4,
          "attributes": {
            "POSITION": 0,
            "NORMAL": 1,
            "COLOR_0": 2
          },
          "indices": 3,
          "material": 0
        }
      ]
    },
    {
      "primitives": [
        {
          "mode": 4,
          "attributes": {
            "POSITION": 4,
            "NORMAL": 5,
            "TEXCOORD_0": 6,
            "COLOR_0": 7
          },
          "indices": 8,
          "material": 1
        }
      ]
    },
    {
      "primitives": [
        {
          "mode": 4,
          "attributes": {
            "POSITION": 9,
            "NORMAL": 10,
            "TEXCOORD_0": 11,
            "COLOR_0": 12
          },
          "indices": 13,
          "material": 2
        }
      ]
    },
    {
      "primitives": [
        {
          "mode": 4,
          "attributes": {
            "POSITION": 14,
            "NORMAL": 15,
            "TEXCOORD_0": 16,
            "COLOR_0": 17
          },
          "indices": 18,
          "material": 3
        }
      ]
    },
    {
      "primitives": [
        {
          "mode": 4,
          "attributes": {
            "POSITION": 19,
            "NORMAL": 20,
            "TEXCOORD_0": 21,
            "COLOR_0": 22
          },
          "indices": 23,
          "material": 4
        }
      ]
    }
  ],
  "textures": [
    {
      "sampler": 0,
      "source": 0
    },
    {
      "sampler": 1,
      "source": 1
    },
    {
      "sampler": 2,
      "source": 2
    },
    {
      "sampler": 3,
      "source": 3
    }
  ],
  "samplers": [
    {
      "magFilter": 9729,
      "minFilter": 9986,
      "wrapS": 10497,
      "wrapT": 10497
    },
    {
      "magFilter": 9729,
      "minFilter": 9986,
      "wrapS": 10497,
      "wrapT": 10497
    },
    {
      "magFilter": 9729,
      "minFilter": 9986,
      "wrapS": 10497,
      "wrapT": 10497
    },
    {
      "magFilter": 9729,
      "minFilter": 9986,
      "wrapS": 10497,
      "wrapT": 10497
    }
  ],
  "images": [
    {
      "mimeType": "image/jpeg",
      "uri": "data:image/jpeg;base64,"
    },
    {
      "mimeType": "image/jpeg",
      "uri": "data:image/jpeg;base64,"
    },
    {
      "mimeType": "image/jpeg",
      "uri": "data:image/jpeg;base64,"
    },
    {
      "mimeType": "image/jpeg",
      "uri": "data:image/jpeg;base64,"
    }
  ]
}