{
  "asset": {
    "version": "2.0",
    "generator": "THREE.GLTFExporter"
  },
  "scenes": [
    {
      "name": "Scene",
      "nodes": [
        6
      ]
    }
  ],
  "scene": 0,
  "nodes": [
    {
      "name": "Building_Apartment_10_Building_Apartment_10_0",
      "extras": {
        "name": "Building_Apartment_10_Building_Apartment_10_0"
      },
      "mesh": 0
    },
    {
      "name": "Building_Apartment_10",
      "extras": {
        "name": "Building_Apartment_10"
      },
      "children": [
        0
      ]
    },
    {
      "name": "RootNode",
      "extras": {
        "name": "RootNode"
      },
      "children": [
        1
      ]
    },
    {
      "matrix": [
        1,
        0,
        0,
        0,
        0,
        -1.3435885648505064e-7,
        1.0000001343588565,
        0,
        0,
        -1.0000001343588565,
        -1.3435885648505064e-7,
        0,
        0,
        0,
        0,
        1
      ],
      "name": "Building_Apartment_10fbx",
      "extras": {
        "name": "Building_Apartment_10.fbx"
      },
      "children": [
        2
      ]
    },
    {
      "name": "RootNode_(model_correction_matrix)",
      "extras": {
        "name": "RootNode (model correction matrix)"
      },
      "children": [
        3
      ]
    },
    {
      "matrix": [
        0.10000000149011612,
        0,
        0,
        0,
        0,
        -1.3435885848715362e-8,
        -0.10000001492600197,
        0,
        0,
        0.10000001492600197,
        -1.3435885848715362e-8,
        0,
        0,
        0,
        0,
        1
      ],
      "name": "RootNode_(gltf_orientation_matrix)",
      "extras": {
        "name": "RootNode (gltf orientation matrix)"
      },
      "children": [
        4
      ]
    },
    {
      "matrix": [
        0.7,
        0,
        0,
        0,
        0,
        0.46,
        0,
        0,
        0,
        0,
        0.65,
        0,
        -21.47335381855257,
        0,
        0,
        1
      ],
      "name": "b12.gltf",
      "children": [
        5
      ]
    }
  ],
  "bufferViews": [
    {
      "buffer": 0,
      "byteOffset": 0,
      "byteLength": 54984,
      "target": 34962,
      "byteStride": 12
    },
    {
      "buffer": 0,
      "byteOffset": 54984,
      "byteLength": 54984,
      "target": 34962,
      "byteStride": 12
    },
    {
      "buffer": 0,
      "byteOffset": 109968,
      "byteLength": 36656,
      "target": 34962,
      "byteStride": 8
    },
    {
      "buffer": 0,
      "byteOffset": 146624,
      "byteLength": 12972,
      "target": 34963
    }
  ],
  "buffers": [
    {
      "byteLength": 159596,
      "uri": "data:application/octet-stream;base64,"
    }
  ],
  "accessors": [
    {
      "bufferView": 0,
      "componentType": 5126,
      "count": 4582,
      "max": [
        536.1434936523438,
        708.3377685546875,
        291.4099426269531
      ],
      "min": [
        -519.7208862304688,
        8.397018432617188,
        -272.1551818847656
      ],
      "type": "VEC3"
    },
    {
      "bufferView": 1,
      "componentType": 5126,
      "count": 4582,
      "max": [
        1,
        1,
        1
      ],
      "min": [
        -1,
        -1,
        -1
      ],
      "type": "VEC3"
    },
    {
      "bufferView": 2,
      "componentType": 5126,
      "count": 4582,
      "max": [
        1.3391057252883911,
        0.9963618516921997
      ],
      "min": [
        0.001809448003768921,
        -0.4818364381790161
      ],
      "type": "VEC2"
    },
    {
      "bufferView": 3,
      "componentType": 5123,
      "count": 6486,
      "max": [
        4581
      ],
      "min": [
        0
      ],
      "type": "SCALAR"
    }
  ],
  "materials": [
    {
      "pbrMetallicRoughness": {
        "baseColorFactor": [
          0.361471027135849,
          0.361471027135849,
          0.361471027135849,
          1
        ],
        "metallicFactor": 0,
        "roughnessFactor": 0.6000000238418579,
        "baseColorTexture": {
          "index": 0
        }
      },
      "doubleSided": true,
      "name": "Building_Apartment_10"
    }
  ],
  "textures": [
    {
      "sampler": 0,
      "source": 0
    }
  ],
  "samplers": [
    {
      "magFilter": 9729,
      "minFilter": 9986,
      "wrapS": 10497,
      "wrapT": 10497
    }
  ],
  "images": [
    {
      "mimeType": "image/jpeg",
      "uri": "data:image/jpeg;base64,"
    }
  ],
  "meshes": [
    {
      "primitives": [
        {
          "mode": 4,
          "attributes": {
            "POSITION": 0,
            "NORMAL": 1,
            "TEXCOORD_0": 2
          },
          "indices": 3,
          "material": 0
        }
      ]
    }
  ]
}