{
  "asset": {
    "version": "2.0",
    "generator": "THREE.GLTFExporter"
  },
  "scenes": [
    {
      "name": "Scene",
      "nodes": [
        19
      ]
    }
  ],
  "scene": 0,
  "nodes": [
    {
      "name": "GeothermalPowerStationUnder_Body_Placeable_0",
      "extras": {
        "name": "GeothermalPowerStationUnder_Body_Placeable_0"
      },
      "mesh": 0
    },
    {
      "name": "GeothermalPowerStationUnder_Body",
      "extras": {
        "name": "GeothermalPowerStationUnder_Body"
      },
      "children": [
        0
      ]
    },
    {
      "name": "GeothermalPowerStationUnder_Door_Placeable_0",
      "extras": {
        "name": "GeothermalPowerStationUnder_Door_Placeable_0"
      },
      "mesh": 1
    },
    {
      "matrix": [
        1,
        0,
        0,
        0,
        0,
        1,
        0,
        0,
        0,
        0,
        1,
        0,
        0,
        -5.5,
        0,
        1
      ],
      "name": "GeothermalPowerStationUnder_Door",
      "extras": {
        "name": "GeothermalPowerStationUnder_Door"
      },
      "children": [
        2
      ]
    },
    {
      "name": "GeothermalPowerStationUnder_Foundation_Placeable_0",
      "extras": {
        "name": "GeothermalPowerStationUnder_Foundation_Placeable_0"
      },
      "mesh": 2
    },
    {
      "name": "GeothermalPowerStationUnder_Foundation",
      "extras": {
        "name": "GeothermalPowerStationUnder_Foundation"
      },
      "children": [
        4
      ]
    },
    {
      "name": "GeothermalPowerStationUnder_FoundationFence_Placeable_0",
      "extras": {
        "name": "GeothermalPowerStationUnder_FoundationFence_Placeable_0"
      },
      "mesh": 3
    },
    {
      "name": "GeothermalPowerStationUnder_FoundationFence",
      "extras": {
        "name": "GeothermalPowerStationUnder_FoundationFence"
      },
      "children": [
        6
      ]
    },
    {
      "name": "GeothermalPowerStationUnder_FoundationParts_Placeable_0",
      "extras": {
        "name": "GeothermalPowerStationUnder_FoundationParts_Placeable_0"
      },
      "mesh": 4
    },
    {
      "name": "GeothermalPowerStationUnder_FoundationParts",
      "extras": {
        "name": "GeothermalPowerStationUnder_FoundationParts"
      },
      "children": [
        8
      ]
    },
    {
      "name": "GeothermalPowerStationUnder_Propeller_Placeable_0",
      "extras": {
        "name": "GeothermalPowerStationUnder_Propeller_Placeable_0"
      },
      "mesh": 5
    },
    {
      "matrix": [
        1,
        0,
        0,
        0,
        0,
        1,
        0,
        0,
        0,
        0,
        1,
        0,
        0,
        4.000001907348633,
        8.922174453735352,
        1
      ],
      "name": "GeothermalPowerStationUnder_Propeller",
      "extras": {
        "name": "GeothermalPowerStationUnder_Propeller"
      },
      "children": [
        10
      ]
    },
    {
      "name": "GeothermalPowerStationUnder_UpperBody_Placeable_0",
      "extras": {
        "name": "GeothermalPowerStationUnder_UpperBody_Placeable_0"
      },
      "mesh": 6
    },
    {
      "name": "GeothermalPowerStationUnder_UpperBody",
      "extras": {
        "name": "GeothermalPowerStationUnder_UpperBody"
      },
      "children": [
        12
      ]
    },
    {
      "matrix": [
        100,
        0,
        0,
        0,
        0,
        -0.000013435885648505064,
        -99.99999657714511,
        0,
        0,
        99.99999657714511,
        -0.000013435885648505064,
        0,
        0,
        0,
        0,
        1
      ],
      "name": "GeothermalPowerStationUnder",
      "extras": {
        "name": "GeothermalPowerStationUnder"
      },
      "children": [
        1,
        3,
        5,
        7,
        9,
        11,
        13
      ]
    },
    {
      "name": "RootNode",
      "extras": {
        "name": "RootNode"
      },
      "children": [
        14
      ]
    },
    {
      "matrix": [
        1,
        0,
        0,
        0,
        0,
        -1.3435885648505064e-7,
        1.0000001343588565,
        0,
        0,
        -1.0000001343588565,
        -1.3435885648505064e-7,
        0,
        0,
        0,
        0,
        1
      ],
      "name": "91408e98cda84852845c7e3ef04dbc17fbx",
      "extras": {
        "name": "91408e98cda84852845c7e3ef04dbc17.fbx"
      },
      "children": [
        15
      ]
    },
    {
      "name": "RootNode_(model_correction_matrix)",
      "extras": {
        "name": "RootNode (model correction matrix)"
      },
      "children": [
        16
      ]
    },
    {
      "matrix": [
        0.009999999776482582,
        0,
        0,
        0,
        0,
        -1.3435885348189617e-9,
        -0.010000001120071118,
        0,
        0,
        0.010000001120071118,
        -1.3435885348189617e-9,
        0,
        0,
        0,
        0,
        1
      ],
      "name": "RootNode_(gltf_orientation_matrix)",
      "extras": {
        "name": "RootNode (gltf orientation matrix)"
      },
      "children": [
        17
      ]
    },
    {
      "name": "bio.gltf",
      "children": [
        18
      ]
    }
  ],
  "bufferViews": [
    {
      "buffer": 0,
      "byteOffset": 0,
      "byteLength": 43908,
      "target": 34962,
      "byteStride": 12
    },
    {
      "buffer": 0,
      "byteOffset": 43908,
      "byteLength": 43908,
      "target": 34962,
      "byteStride": 12
    },
    {
      "buffer": 0,
      "byteOffset": 87816,
      "byteLength": 29272,
      "target": 34962,
      "byteStride": 8
    },
    {
      "buffer": 0,
      "byteOffset": 117088,
      "byteLength": 8616,
      "target": 34963
    },
    {
      "buffer": 0,
      "byteOffset": 125704,
      "byteLength": 2376,
      "target": 34962,
      "byteStride": 12
    },
    {
      "buffer": 0,
      "byteOffset": 128080,
      "byteLength": 2376,
      "target": 34962,
      "byteStride": 12
    },
    {
      "buffer": 0,
      "byteOffset": 130456,
      "byteLength": 1584,
      "target": 34962,
      "byteStride": 8
    },
    {
      "buffer": 0,
      "byteOffset": 132040,
      "byteLength": 480,
      "target": 34963
    },
    {
      "buffer": 0,
      "byteOffset": 132520,
      "byteLength": 95256,
      "target": 34962,
      "byteStride": 12
    },
    {
      "buffer": 0,
      "byteOffset": 227776,
      "byteLength": 95256,
      "target": 34962,
      "byteStride": 12
    },
    {
      "buffer": 0,
      "byteOffset": 323032,
      "byteLength": 63504,
      "target": 34962,
      "byteStride": 8
    },
    {
      "buffer": 0,
      "byteOffset": 386536,
      "byteLength": 16644,
      "target": 34963
    },
    {
      "buffer": 0,
      "byteOffset": 403180,
      "byteLength": 9720,
      "target": 34962,
      "byteStride": 12
    },
    {
      "buffer": 0,
      "byteOffset": 412900,
      "byteLength": 9720,
      "target": 34962,
      "byteStride": 12
    },
    {
      "buffer": 0,
      "byteOffset": 422620,
      "byteLength": 6480,
      "target": 34962,
      "byteStride": 8
    },
    {
      "buffer": 0,
      "byteOffset": 429100,
      "byteLength": 1728,
      "target": 34963
    },
    {
      "buffer": 0,
      "byteOffset": 430828,
      "byteLength": 10080,
      "target": 34962,
      "byteStride": 12
    },
    {
      "buffer": 0,
      "byteOffset": 440908,
      "byteLength": 10080,
      "target": 34962,
      "byteStride": 12
    },
    {
      "buffer": 0,
      "byteOffset": 450988,
      "byteLength": 6720,
      "target": 34962,
      "byteStride": 8
    },
    {
      "buffer": 0,
      "byteOffset": 457708,
      "byteLength": 2520,
      "target": 34963
    },
    {
      "buffer": 0,
      "byteOffset": 460228,
      "byteLength": 15972,
      "target": 34962,
      "byteStride": 12
    },
    {
      "buffer": 0,
      "byteOffset": 476200,
      "byteLength": 15972,
      "target": 34962,
      "byteStride": 12
    },
    {
      "buffer": 0,
      "byteOffset": 492172,
      "byteLength": 10648,
      "target": 34962,
      "byteStride": 8
    },
    {
      "buffer": 0,
      "byteOffset": 502820,
      "byteLength": 3168,
      "target": 34963
    },
    {
      "buffer": 0,
      "byteOffset": 505988,
      "byteLength": 33564,
      "target": 34962,
      "byteStride": 12
    },
    {
      "buffer": 0,
      "byteOffset": 539552,
      "byteLength": 33564,
      "target": 34962,
      "byteStride": 12
    },
    {
      "buffer": 0,
      "byteOffset": 573116,
      "byteLength": 22376,
      "target": 34962,
      "byteStride": 8
    },
    {
      "buffer": 0,
      "byteOffset": 595492,
      "byteLength": 7008,
      "target": 34963
    }
  ],
  "buffers": [
    {
      "byteLength": 602500,
      "uri": "data:application/octet-stream;base64,"
    }
  ],
  "accessors": [
    {
      "bufferView": 0,
      "componentType": 5126,
      "count": 3659,
      "max": [
        12,
        -3.5,
        18.194732666015625
      ],
      "min": [
        -12,
        -20.0017147064209,
        -0.00012978911399841309
      ],
      "type": "VEC3"
    },
    {
      "bufferView": 1,
      "componentType": 5126,
      "count": 3659,
      "max": [
        1,
        1,
        1
      ],
      "min": [
        -1,
        -1,
        -1
      ],
      "type": "VEC3"
    },
    {
      "bufferView": 2,
      "componentType": 5126,
      "count": 3659,
      "max": [
        0.9781405925750732,
        0.8616999983787537
      ],
      "min": [
        0.39049315452575684,
        0.01619189977645874
      ],
      "type": "VEC2"
    },
    {
      "bufferView": 3,
      "componentType": 5123,
      "count": 4308,
      "max": [
        3658
      ],
      "min": [
        0
      ],
      "type": "SCALAR"
    },
    {
      "bufferView": 4,
      "componentType": 5126,
      "count": 198,
      "max": [
        4.491160869598389,
        -10.999998092651367,
        3
      ],
      "min": [
        -4.491160869598389,
        -10.999998092651367,
        1
      ],
      "type": "VEC3"
    },
    {
      "bufferView": 5,
      "componentType": 5126,
      "count": 198,
      "max": [
        0.00008164419705281034,
        -0.9999999403953552,
        0
      ],
      "min": [
        -0.00008164419705281034,
        -1,
        0
      ],
      "type": "VEC3"
    },
    {
      "bufferView": 6,
      "componentType": 5126,
      "count": 198,
      "max": [
        0.986234724521637,
        0.8566333651542664
      ],
      "min": [
        0.4809993505477905,
        0.040987491607666016
      ],
      "type": "VEC2"
    },
    {
      "bufferView": 7,
      "componentType": 5123,
      "count": 240,
      "max": [
        197
      ],
      "min": [
        0
      ],
      "type": "SCALAR"
    },
    {
      "bufferView": 8,
      "componentType": 5126,
      "count": 7938,
      "max": [
        16.10174560546875,
        20.101747512817383,
        10.922191619873047
      ],
      "min": [
        -16.10174560546875,
        -18,
        -0.07782578468322754
      ],
      "type": "VEC3"
    },
    {
      "bufferView": 9,
      "componentType": 5126,
      "count": 7938,
      "max": [
        1,
        1,
        1
      ],
      "min": [
        -1,
        -1,
        -1
      ],
      "type": "VEC3"
    },
    {
      "bufferView": 10,
      "componentType": 5126,
      "count": 7938,
      "max": [
        0.972665548324585,
        0.8623631596565247
      ],
      "min": [
        0.030035972595214844,
        0.013242721557617188
      ],
      "type": "VEC2"
    },
    {
      "bufferView": 11,
      "componentType": 5123,
      "count": 8322,
      "max": [
        7937
      ],
      "min": [
        0
      ],
      "type": "SCALAR"
    },
    {
      "bufferView": 12,
      "componentType": 5126,
      "count": 810,
      "max": [
        10.284292221069336,
        14.270637512207031,
        5.295533657073975
      ],
      "min": [
        -10.284292221069336,
        -6.2842888832092285,
        4.272374629974365
      ],
      "type": "VEC3"
    },
    {
      "bufferView": 13,
      "componentType": 5126,
      "count": 810,
      "max": [
        0.9666792750358582,
        0.9666767120361328,
        0.7216231822967529
      ],
      "min": [
        -0.9666792750358582,
        -0.8679811358451843,
        -0.721621036529541
      ],
      "type": "VEC3"
    },
    {
      "bufferView": 14,
      "componentType": 5126,
      "count": 810,
      "max": [
        0.856904149055481,
        0.8513045310974121
      ],
      "min": [
        0.4678817391395569,
        0.8137370347976685
      ],
      "type": "VEC2"
    },
    {
      "bufferView": 15,
      "componentType": 5123,
      "count": 864,
      "max": [
        809
      ],
      "min": [
        0
      ],
      "type": "SCALAR"
    },
    {
      "bufferView": 16,
      "componentType": 5126,
      "count": 840,
      "max": [
        16.441993713378906,
        20.441991806030273,
        5.810810565948486
      ],
      "min": [
        -16.441993713378906,
        3.1260945796966553,
        0.05680370330810547
      ],
      "type": "VEC3"
    },
    {
      "bufferView": 17,
      "componentType": 5126,
      "count": 840,
      "max": [
        0.998540997505188,
        0.9985409379005432,
        0.9625974893569946
      ],
      "min": [
        -0.998540997505188,
        -0.9985582232475281,
        -0.9626016616821289
      ],
      "type": "VEC3"
    },
    {
      "bufferView": 18,
      "componentType": 5126,
      "count": 840,
      "max": [
        0.48070675134658813,
        0.8504999876022339
      ],
      "min": [
        0.410888671875,
        0.7777137756347656
      ],
      "type": "VEC2"
    },
    {
      "bufferView": 19,
      "componentType": 5123,
      "count": 1260,
      "max": [
        839
      ],
      "min": [
        0
      ],
      "type": "SCALAR"
    },
    {
      "bufferView": 20,
      "componentType": 5126,
      "count": 1331,
      "max": [
        3.8827261924743652,
        3.8827242851257324,
        1.0000009536743164
      ],
      "min": [
        -3.8827271461486816,
        -3.882720470428467,
        0
      ],
      "type": "VEC3"
    },
    {
      "bufferView": 21,
      "componentType": 5126,
      "count": 1331,
      "max": [
        0.9914553761482239,
        0.9914552569389343,
        1
      ],
      "min": [
        -0.9914552569389343,
        -0.9914542436599731,
        -1
      ],
      "type": "VEC3"
    },
    {
      "bufferView": 22,
      "componentType": 5126,
      "count": 1331,
      "max": [
        0.785888671875,
        0.7875792980194092
      ],
      "min": [
        0.4094310402870178,
        0.7846365571022034
      ],
      "type": "VEC2"
    },
    {
      "bufferView": 23,
      "componentType": 5123,
      "count": 1584,
      "max": [
        1330
      ],
      "min": [
        0
      ],
      "type": "SCALAR"
    },
    {
      "bufferView": 24,
      "componentType": 5126,
      "count": 2797,
      "max": [
        10.089442253112793,
        -1.5,
        14.5
      ],
      "min": [
        -10.089442253112793,
        -20.0017147064209,
        0
      ],
      "type": "VEC3"
    },
    {
      "bufferView": 25,
      "componentType": 5126,
      "count": 2797,
      "max": [
        1,
        1,
        1
      ],
      "min": [
        -1,
        -1,
        -1
      ],
      "type": "VEC3"
    },
    {
      "bufferView": 26,
      "componentType": 5126,
      "count": 2797,
      "max": [
        0.9607526063919067,
        0.862500011920929
      ],
      "min": [
        0.03247344493865967,
        0.0921926498413086
      ],
      "type": "VEC2"
    },
    {
      "bufferView": 27,
      "componentType": 5123,
      "count": 3504,
      "max": [
        2796
      ],
      "min": [
        0
      ],
      "type": "SCALAR"
    }
  ],
  "materials": [
    {
      "pbrMetallicRoughness": {
        "metallicFactor": 1,
        "roughnessFactor": 0.75,
        "metallicRoughnessTexture": {
          "index": 0
        },
        "baseColorTexture": {
          "index": 1
        }
      },
      "emissiveFactor": [
        1,
        1,
        1
      ],
      "emissiveTexture": {
        "index": 2
      },
      "doubleSided": true,
      "name": "Placeable"
    }
  ],
  "textures": [
    {
      "sampler": 0,
      "source": 0
    },
    {
      "sampler": 1,
      "source": 1
    },
    {
      "sampler": 2,
      "source": 2
    }
  ],
  "samplers": [
    {
      "magFilter": 9728,
      "minFilter": 9984,
      "wrapS": 10497,
      "wrapT": 10497
    },
    {
      "magFilter": 9728,
      "minFilter": 9984,
      "wrapS": 10497,
      "wrapT": 10497
    },
    {
      "magFilter": 9728,
      "minFilter": 9984,
      "wrapS": 10497,
      "wrapT": 10497
    }
  ],
  "images": [
    {
      "mimeType": "image/jpeg",
      "uri": "data:image/jpeg;base64,"
    },
    {
      "mimeType": "image/jpeg",
      "uri": "data:image/jpeg;base64,"
    },
    {
      "mimeType": "image/jpeg",
      "uri": "data:image/jpeg;base64,"
    }
  ],
  "meshes": [
    {
      "primitives": [
        {
          "mode": 4,
          "attributes": {
            "POSITION": 0,
            "NORMAL": 1,
            "TEXCOORD_0": 2
          },
          "indices": 3,
          "material": 0
        }
      ]
    },
    {
      "primitives": [
        {
          "mode": 4,
          "attributes": {
            "POSITION": 4,
            "NORMAL": 5,
            "TEXCOORD_0": 6
          },
          "indices": 7,
          "material": 0
        }
      ]
    },
    {
      "primitives": [
        {
          "mode": 4,
          "attributes": {
            "POSITION": 8,
            "NORMAL": 9,
            "TEXCOORD_0": 10
          },
          "indices": 11,
          "material": 0
        }
      ]
    },
    {
      "primitives": [
        {
          "mode": 4,
          "attributes": {
            "POSITION": 12,
            "NORMAL": 13,
            "TEXCOORD_0": 14
          },
          "indices": 15,
          "material": 0
        }
      ]
    },
    {
      "primitives": [
        {
          "mode": 4,
          "attributes": {
            "POSITION": 16,
            "NORMAL": 17,
            "TEXCOORD_0": 18
          },
          "indices": 19,
          "material": 0
        }
      ]
    },
    {
      "primitives": [
        {
          "mode": 4,
          "attributes": {
            "POSITION": 20,
            "NORMAL": 21,
            "TEXCOORD_0": 22
          },
          "indices": 23,
          "material": 0
        }
      ]
    },
    {
      "primitives": [
        {
          "mode": 4,
          "attributes": {
            "POSITION": 24,
            "NORMAL": 25,
            "TEXCOORD_0": 26
          },
          "indices": 27,
          "material": 0
        }
      ]
    }
  ]
}