{
  "asset": {
    "version": "2.0",
    "generator": "THREE.GLTFExporter"
  },
  "scenes": [
    {
      "name": "Scene",
      "nodes": [
        14
      ]
    }
  ],
  "scene": 0,
  "nodes": [
    {
      "name": "GeothermalPowerStation_body_Placeable_0",
      "extras": {
        "name": "GeothermalPowerStation_body_Placeable_0"
      },
      "mesh": 0
    },
    {
      "name": "GeothermalPowerStation_body",
      "extras": {
        "name": "GeothermalPowerStation_body"
      },
      "children": [
        0
      ]
    },
    {
      "name": "GeothermalPowerStation_Fancs_Placeable_0",
      "extras": {
        "name": "GeothermalPowerStation_Fancs_Placeable_0"
      },
      "mesh": 1
    },
    {
      "name": "GeothermalPowerStation_Fancs",
      "extras": {
        "name": "GeothermalPowerStation_Fancs"
      },
      "children": [
        2
      ]
    },
    {
      "name": "GeothermalPowerStation_Pipe_Placeable_0",
      "extras": {
        "name": "GeothermalPowerStation_Pipe_Placeable_0"
      },
      "mesh": 2
    },
    {
      "matrix": [
        1,
        0,
        0,
        0,
        0,
        1,
        0,
        0,
        0,
        0,
        1,
        0,
        0,
        0,
        16,
        1
      ],
      "name": "GeothermalPowerStation_Pipe",
      "extras": {
        "name": "GeothermalPowerStation_Pipe"
      },
      "children": [
        4
      ]
    },
    {
      "name": "GeothermalPowerStation_PipeContact_Placeable_0",
      "extras": {
        "name": "GeothermalPowerStation_PipeContact_Placeable_0"
      },
      "mesh": 3
    },
    {
      "matrix": [
        1,
        0,
        0,
        0,
        0,
        1,
        0,
        0,
        0,
        0,
        1,
        0,
        0,
        0,
        -4,
        1
      ],
      "name": "GeothermalPowerStation_PipeContact",
      "extras": {
        "name": "GeothermalPowerStation_PipeContact"
      },
      "children": [
        6
      ]
    },
    {
      "matrix": [
        100,
        0,
        0,
        0,
        0,
        -0.00001343588565490797,
        -99.99999657714513,
        0,
        0,
        99.99999657714513,
        -0.00001343588565490797,
        0,
        0,
        0,
        0,
        1
      ],
      "name": "GeothermalPowerStation",
      "extras": {
        "name": "GeothermalPowerStation"
      },
      "children": [
        1,
        3,
        5,
        7
      ]
    },
    {
      "name": "RootNode",
      "extras": {
        "name": "RootNode"
      },
      "children": [
        8
      ]
    },
    {
      "matrix": [
        1,
        0,
        0,
        0,
        0,
        -1.3435885655173873e-7,
        1.0000001343588565,
        0,
        0,
        -1.0000001343588565,
        -1.3435885655173873e-7,
        0,
        0,
        0,
        0,
        1
      ],
      "name": "4edbba7e2d2041088261ddae027472c1fbx",
      "extras": {
        "name": "4edbba7e2d2041088261ddae027472c1.fbx"
      },
      "children": [
        9
      ]
    },
    {
      "matrix": [
        1,
        0,
        0,
        0,
        0,
        1,
        0,
        0,
        0,
        0,
        1,
        0,
        0,
        -0.0004073185846209526,
        -0.0002515980741009116,
        1
      ],
      "name": "RootNode_(model_correction_matrix)",
      "extras": {
        "name": "RootNode (model correction matrix)"
      },
      "children": [
        10
      ]
    },
    {
      "matrix": [
        0.009999999776482582,
        0,
        0,
        0,
        0,
        -1.3435885332653966e-9,
        -0.010000001120071118,
        0,
        0,
        0.010000001120071118,
        -1.3435885332653966e-9,
        0,
        0,
        30.077695846557617,
        0,
        1
      ],
      "name": "RootNode_(gltf_orientation_matrix)",
      "extras": {
        "name": "RootNode (gltf orientation matrix)"
      },
      "children": [
        11
      ]
    },
    {
      "name": "geogltf",
      "extras": {
        "name": "geo.gltf"
      },
      "children": [
        12
      ]
    },
    {
      "matrix": [
        0.5,
        0,
        0,
        0,
        0,
        0.5,
        0,
        0,
        0,
        0,
        0.5,
        0,
        0,
        -2.4011342912446683,
        0,
        1
      ],
      "name": "geo.gltf",
      "children": [
        13
      ]
    }
  ],
  "bufferViews": [
    {
      "buffer": 0,
      "byteOffset": 0,
      "byteLength": 390948,
      "target": 34962,
      "byteStride": 12
    },
    {
      "buffer": 0,
      "byteOffset": 390948,
      "byteLength": 390948,
      "target": 34962,
      "byteStride": 12
    },
    {
      "buffer": 0,
      "byteOffset": 781896,
      "byteLength": 260632,
      "target": 34962,
      "byteStride": 8
    },
    {
      "buffer": 0,
      "byteOffset": 1042528,
      "byteLength": 76020,
      "target": 34963
    },
    {
      "buffer": 0,
      "byteOffset": 1118548,
      "byteLength": 57384,
      "target": 34962,
      "byteStride": 12
    },
    {
      "buffer": 0,
      "byteOffset": 1175932,
      "byteLength": 57384,
      "target": 34962,
      "byteStride": 12
    },
    {
      "buffer": 0,
      "byteOffset": 1233316,
      "byteLength": 38256,
      "target": 34962,
      "byteStride": 8
    },
    {
      "buffer": 0,
      "byteOffset": 1271572,
      "byteLength": 10944,
      "target": 34963
    },
    {
      "buffer": 0,
      "byteOffset": 1282516,
      "byteLength": 39216,
      "target": 34962,
      "byteStride": 12
    },
    {
      "buffer": 0,
      "byteOffset": 1321732,
      "byteLength": 39216,
      "target": 34962,
      "byteStride": 12
    },
    {
      "buffer": 0,
      "byteOffset": 1360948,
      "byteLength": 26144,
      "target": 34962,
      "byteStride": 8
    },
    {
      "buffer": 0,
      "byteOffset": 1387092,
      "byteLength": 9216,
      "target": 34963
    },
    {
      "buffer": 0,
      "byteOffset": 1396308,
      "byteLength": 61392,
      "target": 34962,
      "byteStride": 12
    },
    {
      "buffer": 0,
      "byteOffset": 1457700,
      "byteLength": 61392,
      "target": 34962,
      "byteStride": 12
    },
    {
      "buffer": 0,
      "byteOffset": 1519092,
      "byteLength": 40928,
      "target": 34962,
      "byteStride": 8
    },
    {
      "buffer": 0,
      "byteOffset": 1560020,
      "byteLength": 10944,
      "target": 34963
    }
  ],
  "buffers": [
    {
      "byteLength": 1570964,
      "uri": "data:application/octet-stream;base64,"
    }
  ],
  "accessors": [
    {
      "bufferView": 0,
      "componentType": 5126,
      "count": 32579,
      "max": [
        35.93471145629883,
        35.93471145629883,
        57.00197219848633
      ],
      "min": [
        -35.93471145629883,
        -35.93471145629883,
        -21
      ],
      "type": "VEC3"
    },
    {
      "bufferView": 1,
      "componentType": 5126,
      "count": 32579,
      "max": [
        1,
        1,
        1
      ],
      "min": [
        -1,
        -1,
        -1
      ],
      "type": "VEC3"
    },
    {
      "bufferView": 2,
      "componentType": 5126,
      "count": 32579,
      "max": [
        0.9601857662200928,
        0.987445592880249
      ],
      "min": [
        0.012499988079071045,
        0.018314838409423828
      ],
      "type": "VEC2"
    },
    {
      "bufferView": 3,
      "componentType": 5123,
      "count": 38010,
      "max": [
        32578
      ],
      "min": [
        0
      ],
      "type": "SCALAR"
    },
    {
      "bufferView": 4,
      "componentType": 5126,
      "count": 4782,
      "max": [
        14.959053039550781,
        14.959060668945312,
        3
      ],
      "min": [
        -14.959053039550781,
        -14.959060668945312,
        2
      ],
      "type": "VEC3"
    },
    {
      "bufferView": 5,
      "componentType": 5126,
      "count": 4782,
      "max": [
        1,
        1,
        1
      ],
      "min": [
        -1,
        -1,
        -1
      ],
      "type": "VEC3"
    },
    {
      "bufferView": 6,
      "componentType": 5126,
      "count": 4782,
      "max": [
        0.48750001192092896,
        0.862500011920929
      ],
      "min": [
        0.38749998807907104,
        0.762499988079071
      ],
      "type": "VEC2"
    },
    {
      "bufferView": 7,
      "componentType": 5123,
      "count": 5472,
      "max": [
        4781
      ],
      "min": [
        0
      ],
      "type": "SCALAR"
    },
    {
      "bufferView": 8,
      "componentType": 5126,
      "count": 3268,
      "max": [
        6,
        6,
        0
      ],
      "min": [
        -6,
        -6,
        -28
      ],
      "type": "VEC3"
    },
    {
      "bufferView": 9,
      "componentType": 5126,
      "count": 3268,
      "max": [
        0.9238796830177307,
        0.9238796830177307,
        0
      ],
      "min": [
        -0.9238796830177307,
        -0.9238796830177307,
        -1
      ],
      "type": "VEC3"
    },
    {
      "bufferView": 10,
      "componentType": 5126,
      "count": 3268,
      "max": [
        0.612500011920929,
        0.987500011920929
      ],
      "min": [
        0.512499988079071,
        0.887499988079071
      ],
      "type": "VEC2"
    },
    {
      "bufferView": 11,
      "componentType": 5123,
      "count": 4608,
      "max": [
        3267
      ],
      "min": [
        0
      ],
      "type": "SCALAR"
    },
    {
      "bufferView": 12,
      "componentType": 5126,
      "count": 5116,
      "max": [
        15.760313987731934,
        15.760308265686035,
        0
      ],
      "min": [
        -15.760313987731934,
        -15.760308265686035,
        -23.429931640625
      ],
      "type": "VEC3"
    },
    {
      "bufferView": 13,
      "componentType": 5126,
      "count": 5116,
      "max": [
        0.9997474551200867,
        0.999747633934021,
        0.930410623550415
      ],
      "min": [
        -0.9997474551200867,
        -0.999747633934021,
        -0.9970752596855164
      ],
      "type": "VEC3"
    },
    {
      "bufferView": 14,
      "componentType": 5126,
      "count": 5116,
      "max": [
        0.612500011920929,
        0.987500011920929
      ],
      "min": [
        0.512499988079071,
        0.887499988079071
      ],
      "type": "VEC2"
    },
    {
      "bufferView": 15,
      "componentType": 5123,
      "count": 5472,
      "max": [
        5115
      ],
      "min": [
        0
      ],
      "type": "SCALAR"
    }
  ],
  "materials": [
    {
      "pbrMetallicRoughness": {
        "metallicFactor": 1,
        "roughnessFactor": 0.8040408492088318,
        "metallicRoughnessTexture": {
          "index": 0
        },
        "baseColorTexture": {
          "index": 1
        }
      },
      "emissiveFactor": [
        1,
        1,
        1
      ],
      "emissiveTexture": {
        "index": 2
      },
      "doubleSided": true,
      "name": "Placeable"
    }
  ],
  "textures": [
    {
      "sampler": 0,
      "source": 0
    },
    {
      "sampler": 1,
      "source": 1
    },
    {
      "sampler": 2,
      "source": 2
    }
  ],
  "samplers": [
    {
      "magFilter": 9728,
      "minFilter": 9984,
      "wrapS": 10497,
      "wrapT": 10497
    },
    {
      "magFilter": 9728,
      "minFilter": 9984,
      "wrapS": 10497,
      "wrapT": 10497
    },
    {
      "magFilter": 9728,
      "minFilter": 9984,
      "wrapS": 10497,
      "wrapT": 10497
    }
  ],
  "images": [
    {
      "mimeType": "image/jpeg",
      "uri": "data:image/jpeg;base64,"
    },
    {
      "mimeType": "image/jpeg",
      "uri": "data:image/jpeg;base64,"
    },
    {
      "mimeType": "image/jpeg",
      "uri": "data:image/jpeg;base64,"
    }
  ],
  "meshes": [
    {
      "primitives": [
        {
          "mode": 4,
          "attributes": {
            "POSITION": 0,
            "NORMAL": 1,
            "TEXCOORD_0": 2
          },
          "indices": 3,
          "material": 0
        }
      ]
    },
    {
      "primitives": [
        {
          "mode": 4,
          "attributes": {
            "POSITION": 4,
            "NORMAL": 5,
            "TEXCOORD_0": 6
          },
          "indices": 7,
          "material": 0
        }
      ]
    },
    {
      "primitives": [
        {
          "mode": 4,
          "attributes": {
            "POSITION": 8,
            "NORMAL": 9,
            "TEXCOORD_0": 10
          },
          "indices": 11,
          "material": 0
        }
      ]
    },
    {
      "primitives": [
        {
          "mode": 4,
          "attributes": {
            "POSITION": 12,
            "NORMAL": 13,
            "TEXCOORD_0": 14
          },
          "indices": 15,
          "material": 0
        }
      ]
    }
  ]
}