{
    "asset" : {
        "generator" : "Khronos glTF Blender I/O v1.4.40",
        "version" : "2.0"
    },
    "scene" : 0,
    "scenes" : [
        {
            "name" : "Scene",
            "nodes" : [
                14
            ]
        }
    ],
    "nodes" : [
        {
            "mesh" : 0,
            "name" : "Back_Rotor_lambert1_0"
        },
        {
            "children" : [
                0
            ],
            "name" : "Back_Rotor",
            "translation" : [
                0,
                307.3621826171875,
                -881.6714477539062
            ]
        },
        {
            "mesh" : 1,
            "name" : "Bell_Huey_Glass_0"
        },
        {
            "mesh" : 2,
            "name" : "Bell_Huey_lambert1_0"
        },
        {
            "mesh" : 3,
            "name" : "Inside1_Glass_0"
        },
        {
            "mesh" : 4,
            "name" : "Inside1_Huey_inside_material_0"
        },
        {
            "children" : [
                4,
                5
            ],
            "name" : "Inside1"
        },
        {
            "mesh" : 5,
            "name" : "Top_Rotor_lambert1_0"
        },
        {
            "children" : [
                7
            ],
            "name" : "Top_Rotor",
            "translation" : [
                0,
                251.1904754638672,
                0
            ]
        },
        {
            "children" : [
                1,
                2,
                3,
                6,
                8
            ],
            "name" : "Bell_Huey",
            "scale" : [
                0.009999999776482582,
                0.009999999776482582,
                0.009999999776482582
            ]
        },
        {
            "children" : [
                9
            ],
            "name" : "RootNode"
        },
        {
            "children" : [
                10
            ],
            "name" : "Node_3"
        },
        {
            "children" : [
                11
            ],
            "name" : "4e130d3694194a7c80dde424f97c3eff.fbx",
            "rotation" : [
                0.7071068286895752,
                0,
                0,
                0.7071068286895752
            ]
        },
        {
            "children" : [
                12
            ],
            "name" : "RootNode (model correction matrix)"
        },
        {
            "children" : [
                13
            ],
            "name" : "RootNode (gltf orientation matrix)",
            "rotation" : [
                -0.7071068286895752,
                0,
                0,
                0.7071068286895752
            ]
        }
    ],
    "animations" : [
        {
            "channels" : [
                {
                    "sampler" : 0,
                    "target" : {
                        "node" : 1,
                        "path" : "rotation"
                    }
                },
                {
                    "sampler" : 1,
                    "target" : {
                        "node" : 8,
                        "path" : "rotation"
                    }
                }
            ],
            "name" : "Take 001",
            "samplers" : [
                {
                    "input" : 21,
                    "interpolation" : "LINEAR",
                    "output" : 22
                },
                {
                    "input" : 21,
                    "interpolation" : "LINEAR",
                    "output" : 23
                }
            ]
        }
    ],
    "materials" : [
        {
            "doubleSided" : true,
            "name" : "lambert1",
            "pbrMetallicRoughness" : {
                "baseColorTexture" : {
                    "index" : 0,
                    "texCoord" : 0
                },
                "metallicFactor" : 0.9532197117805481,
                "roughnessFactor" : 0.8259469866752625
            }
        },
        {
            "alphaMode" : "BLEND",
            "doubleSided" : true,
            "name" : "Glass",
            "pbrMetallicRoughness" : {
                "baseColorFactor" : [
                    0.5071911811828613,
                    0.6856492161750793,
                    0.7579697370529175,
                    0.13768939673900604
                ],
                "metallicFactor" : 0.0986742451786995,
                "roughnessFactor" : 0
            }
        },
        {
            "doubleSided" : true,
            "name" : "Huey_inside_material",
            "pbrMetallicRoughness" : {
                "baseColorFactor" : [
                    0,
                    0,
                    0,
                    1
                ],
                "metallicFactor" : 0,
                "roughnessFactor" : 0.6000000238418579
            }
        }
    ],
    "meshes" : [
        {
            "name" : "Back_Rotor_lambert1_0",
            "primitives" : [
                {
                    "attributes" : {
                        "POSITION" : 0,
                        "NORMAL" : 1,
                        "TEXCOORD_0" : 2
                    },
                    "indices" : 3,
                    "material" : 0
                }
            ]
        },
        {
            "name" : "Bell_Huey_Glass_0",
            "primitives" : [
                {
                    "attributes" : {
                        "POSITION" : 4,
                        "NORMAL" : 5
                    },
                    "indices" : 6,
                    "material" : 1
                }
            ]
        },
        {
            "name" : "Bell_Huey_lambert1_0",
            "primitives" : [
                {
                    "attributes" : {
                        "POSITION" : 7,
                        "NORMAL" : 8,
                        "TEXCOORD_0" : 9
                    },
                    "indices" : 10,
                    "material" : 0
                }
            ]
        },
        {
            "name" : "Inside1_Glass_0",
            "primitives" : [
                {
                    "attributes" : {
                        "POSITION" : 11,
                        "NORMAL" : 12
                    },
                    "indices" : 13,
                    "material" : 1
                }
            ]
        },
        {
            "name" : "Inside1_Huey_inside_material_0",
            "primitives" : [
                {
                    "attributes" : {
                        "POSITION" : 14,
                        "NORMAL" : 15
                    },
                    "indices" : 16,
                    "material" : 2
                }
            ]
        },
        {
            "name" : "Top_Rotor_lambert1_0",
            "primitives" : [
                {
                    "attributes" : {
                        "POSITION" : 17,
                        "NORMAL" : 18,
                        "TEXCOORD_0" : 19
                    },
                    "indices" : 20,
                    "material" : 0
                }
            ]
        }
    ],
    "textures" : [
        {
            "sampler" : 0,
            "source" : 0
        }
    ],
    "images" : [
        {
            "bufferView" : 4,
            "mimeType" : "image/png",
            "name" : "lambert1_baseColor"
        }
    ],
    "accessors" : [
        {
            "bufferView" : 0,
            "componentType" : 5126,
            "count" : 65,
            "max" : [
                41.00870132446289,
                91.17858123779297,
                119.1749038696289
            ],
            "min" : [
                12.42435359954834,
                -90.1826400756836,
                -118.8623275756836
            ],
            "type" : "VEC3"
        },
        {
            "bufferView" : 1,
            "componentType" : 5126,
            "count" : 65,
            "type" : "VEC3"
        },
        {
            "bufferView" : 2,
            "componentType" : 5126,
            "count" : 65,
            "type" : "VEC2"
        },
        {
            "bufferView" : 3,
            "componentType" : 5123,
            "count" : 192,
            "type" : "SCALAR"
        },
        {
            "bufferView" : 5,
            "componentType" : 5126,
            "count" : 135,
            "max" : [
                135.9255828857422,
                245.98805236816406,
                383.04443359375
            ],
            "min" : [
                -135.93275451660156,
                61.26567077636719,
                -138.40985107421875
            ],
            "type" : "VEC3"
        },
        {
            "bufferView" : 6,
            "componentType" : 5126,
            "count" : 135,
            "type" : "VEC3"
        },
        {
            "bufferView" : 7,
            "componentType" : 5123,
            "count" : 279,
            "type" : "SCALAR"
        },
        {
            "bufferView" : 8,
            "componentType" : 5126,
            "count" : 919,
            "max" : [
                143.94578552246094,
                320.74920654296875,
                389.00494384765625
            ],
            "min" : [
                -143.94578552246094,
                0.9378315210342407,
                -910.1928100585938
            ],
            "type" : "VEC3"
        },
        {
            "bufferView" : 9,
            "componentType" : 5126,
            "count" : 919,
            "type" : "VEC3"
        },
        {
            "bufferView" : 10,
            "componentType" : 5126,
            "count" : 919,
            "type" : "VEC2"
        },
        {
            "bufferView" : 11,
            "componentType" : 5123,
            "count" : 2829,
            "type" : "SCALAR"
        },
        {
            "bufferView" : 12,
            "componentType" : 5126,
            "count" : 133,
            "max" : [
                134.04005432128906,
                244.42079162597656,
                379.72918701171875
            ],
            "min" : [
                -134.0471649169922,
                62.88908767700195,
                -134.4920654296875
            ],
            "type" : "VEC3"
        },
        {
            "bufferView" : 13,
            "componentType" : 5126,
            "count" : 133,
            "type" : "VEC3"
        },
        {
            "bufferView" : 14,
            "componentType" : 5123,
            "count" : 273,
            "type" : "SCALAR"
        },
        {
            "bufferView" : 15,
            "componentType" : 5126,
            "count" : 501,
            "max" : [
                135.01910400390625,
                248.91355895996094,
                385.60382080078125
            ],
            "min" : [
                -135.01910400390625,
                42.59955978393555,
                -272.69268798828125
            ],
            "type" : "VEC3"
        },
        {
            "bufferView" : 16,
            "componentType" : 5126,
            "count" : 501,
            "type" : "VEC3"
        },
        {
            "bufferView" : 17,
            "componentType" : 5123,
            "count" : 1533,
            "type" : "SCALAR"
        },
        {
            "bufferView" : 18,
            "componentType" : 5126,
            "count" : 310,
            "max" : [
                374.2051696777344,
                150.57176208496094,
                665.0941772460938
            ],
            "min" : [
                -374.2051696777344,
                -5.6111602783203125,
                -665.0941772460938
            ],
            "type" : "VEC3"
        },
        {
            "bufferView" : 19,
            "componentType" : 5126,
            "count" : 310,
            "type" : "VEC3"
        },
        {
            "bufferView" : 20,
            "componentType" : 5126,
            "count" : 310,
            "type" : "VEC2"
        },
        {
            "bufferView" : 21,
            "componentType" : 5123,
            "count" : 936,
            "type" : "SCALAR"
        },
        {
            "bufferView" : 22,
            "componentType" : 5126,
            "count" : 30,
            "max" : [
                1.25
            ],
            "min" : [
                0.041666666666666664
            ],
            "type" : "SCALAR"
        },
        {
            "bufferView" : 23,
            "componentType" : 5126,
            "count" : 30,
            "type" : "VEC4"
        },
        {
            "bufferView" : 24,
            "componentType" : 5126,
            "count" : 30,
            "type" : "VEC4"
        }
    ],
    "bufferViews" : [
        {
            "buffer" : 0,
            "byteLength" : 780,
            "byteOffset" : 0
        },
        {
            "buffer" : 0,
            "byteLength" : 780,
            "byteOffset" : 780
        },
        {
            "buffer" : 0,
            "byteLength" : 520,
            "byteOffset" : 1560
        },
        {
            "buffer" : 0,
            "byteLength" : 384,
            "byteOffset" : 2080
        },
        {
            "buffer" : 0,
            "byteLength" : 957590,
            "byteOffset" : 2464
        },
        {
            "buffer" : 0,
            "byteLength" : 1620,
            "byteOffset" : 960056
        },
        {
            "buffer" : 0,
            "byteLength" : 1620,
            "byteOffset" : 961676
        },
        {
            "buffer" : 0,
            "byteLength" : 558,
            "byteOffset" : 963296
        },
        {
            "buffer" : 0,
            "byteLength" : 11028,
            "byteOffset" : 963856
        },
        {
            "buffer" : 0,
            "byteLength" : 11028,
            "byteOffset" : 974884
        },
        {
            "buffer" : 0,
            "byteLength" : 7352,
            "byteOffset" : 985912
        },
        {
            "buffer" : 0,
            "byteLength" : 5658,
            "byteOffset" : 993264
        },
        {
            "buffer" : 0,
            "byteLength" : 1596,
            "byteOffset" : 998924
        },
        {
            "buffer" : 0,
            "byteLength" : 1596,
            "byteOffset" : 1000520
        },
        {
            "buffer" : 0,
            "byteLength" : 546,
            "byteOffset" : 1002116
        },
        {
            "buffer" : 0,
            "byteLength" : 6012,
            "byteOffset" : 1002664
        },
        {
            "buffer" : 0,
            "byteLength" : 6012,
            "byteOffset" : 1008676
        },
        {
            "buffer" : 0,
            "byteLength" : 3066,
            "byteOffset" : 1014688
        },
        {
            "buffer" : 0,
            "byteLength" : 3720,
            "byteOffset" : 1017756
        },
        {
            "buffer" : 0,
            "byteLength" : 3720,
            "byteOffset" : 1021476
        },
        {
            "buffer" : 0,
            "byteLength" : 2480,
            "byteOffset" : 1025196
        },
        {
            "buffer" : 0,
            "byteLength" : 1872,
            "byteOffset" : 1027676
        },
        {
            "buffer" : 0,
            "byteLength" : 120,
            "byteOffset" : 1029548
        },
        {
            "buffer" : 0,
            "byteLength" : 480,
            "byteOffset" : 1029668
        },
        {
            "buffer" : 0,
            "byteLength" : 480,
            "byteOffset" : 1030148
        }
    ],
    "samplers" : [
        {
            "magFilter" : 9729,
            "minFilter" : 9986
        }
    ],
    "buffers" : [
        {
            "byteLength" : 1030628,
            "uri" : "data:application/octet-stream;base64,"
        }
    ]
}
