{
  "asset": {
    "version": "2.0",
    "generator": "THREE.GLTFExporter"
  },
  "scenes": [
    {
      "name": "Scene",
      "nodes": [
        7
      ]
    }
  ],
  "scene": 0,
  "nodes": [
    {
      "name": "Mesh_0",
      "extras": {
        "name": "Mesh_0"
      },
      "mesh": 0
    },
    {
      "name": "Garbage_Truck1objcleaner",
      "extras": {
        "name": "Garbage Truck1.obj.cleaner"
      },
      "children": [
        0
      ]
    },
    {
      "name": "RootNode_(model_correction_matrix)",
      "extras": {
        "name": "RootNode (model correction matrix)"
      },
      "children": [
        1
      ]
    },
    {
      "matrix": [
        1,
        0,
        0,
        0,
        0,
        -1.3435885655173873e-7,
        -1.0000001343588565,
        0,
        0,
        1.0000001343588565,
        -1.3435885655173873e-7,
        0,
        0,
        167.73809814453125,
        0,
        1
      ],
      "name": "RootNode_(gltf_orientation_matrix)",
      "extras": {
        "name": "RootNode (gltf orientation matrix)"
      },
      "children": [
        2
      ]
    },
    {
      "matrix": [
        0.02,
        0,
        0,
        0,
        0,
        0.02,
        0,
        0,
        0,
        0,
        0.02,
        0,
        0,
        0,
        0,
        1
      ],
      "name": "truck1gltf",
      "extras": {
        "name": "truck1.gltf"
      },
      "children": [
        3
      ]
    },
    {
      "matrix": [
        -0.010471890446942298,
        0,
        -1.4999634460580922,
        0,
        0,
        1.5,
        0,
        0,
        1.4999634460580922,
        0,
        -0.010471890446942298,
        0,
        0,
        0,
        0,
        1
      ],
      "name": "orangeTruckgltf",
      "extras": {
        "name": "orangeTruck.gltf"
      },
      "children": [
        4
      ]
    },
    {
      "name": "trash_truckgltf",
      "extras": {
        "name": "trash_truck.gltf"
      },
      "children": [
        5
      ]
    },
    {
      "name": "trash_truck.gltf",
      "children": [
        6
      ]
    }
  ],
  "bufferViews": [
    {
      "buffer": 0,
      "byteOffset": 0,
      "byteLength": 39264,
      "target": 34962,
      "byteStride": 12
    },
    {
      "buffer": 0,
      "byteOffset": 39264,
      "byteLength": 39264,
      "target": 34962,
      "byteStride": 12
    },
    {
      "buffer": 0,
      "byteOffset": 78528,
      "byteLength": 26176,
      "target": 34962,
      "byteStride": 8
    },
    {
      "buffer": 0,
      "byteOffset": 104704,
      "byteLength": 13560,
      "target": 34963
    }
  ],
  "buffers": [
    {
      "byteLength": 118264,
      "uri": "data:application/octet-stream;base64,"
    }
  ],
  "accessors": [
    {
      "bufferView": 0,
      "componentType": 5126,
      "count": 3272,
      "max": [
        355.443115234375,
        127.5719985961914,
        168.1529998779297
      ],
      "min": [
        -355.443115234375,
        -127.5719985961914,
        -168.1529998779297
      ],
      "type": "VEC3"
    },
    {
      "bufferView": 1,
      "componentType": 5126,
      "count": 3272,
      "max": [
        1,
        1,
        1
      ],
      "min": [
        -1,
        -1,
        -1
      ],
      "type": "VEC3"
    },
    {
      "bufferView": 2,
      "componentType": 5126,
      "count": 3272,
      "max": [
        0.9894000291824341,
        0.9937999844551086
      ],
      "min": [
        0.00139999995008111,
        0.003000020980834961
      ],
      "type": "VEC2"
    },
    {
      "bufferView": 3,
      "componentType": 5123,
      "count": 6780,
      "max": [
        3271
      ],
      "min": [
        0
      ],
      "type": "SCALAR"
    }
  ],
  "materials": [
    {
      "pbrMetallicRoughness": {
        "metallicFactor": 0,
        "roughnessFactor": 0.6000000238418579,
        "baseColorTexture": {
          "index": 0
        }
      },
      "emissiveTexture": {
        "index": 1
      },
      "doubleSided": true,
      "name": "04___Default"
    }
  ],
  "textures": [
    {
      "sampler": 0,
      "source": 0
    },
    {
      "sampler": 1,
      "source": 1
    }
  ],
  "samplers": [
    {
      "magFilter": 9729,
      "minFilter": 9986,
      "wrapS": 10497,
      "wrapT": 10497
    },
    {
      "magFilter": 9729,
      "minFilter": 9986,
      "wrapS": 10497,
      "wrapT": 10497
    }
  ],
  "images": [
    {
      "mimeType": "image/jpeg",
      "uri": "data:image/jpeg;base64,"
    },
    {
      "mimeType": "image/jpeg",
      "uri": "data:image/jpeg;base64,"
    }
  ],
  "meshes": [
    {
      "primitives": [
        {
          "mode": 4,
          "attributes": {
            "POSITION": 0,
            "NORMAL": 1,
            "TEXCOORD_0": 2
          },
          "indices": 3,
          "material": 0
        }
      ]
    }
  ]
}