{
    "asset" : {
        "generator" : "Khronos glTF Blender I/O v1.4.40",
        "version" : "2.0"
    },
    "scene" : 0,
    "scenes" : [
        {
            "name" : "Scene",
            "nodes" : [
                5
            ]
        }
    ],
    "nodes" : [
        {
            "mesh" : 0,
            "name" : "mesh_0"
        },
        {
            "children" : [
                0
            ],
            "name" : "b509cc9330024ec683138a624aa86d9bobjcleanermaterialmergergles"
        },
        {
            "children" : [
                1
            ],
            "name" : "RootNode_(model_correction_matrix)"
        },
        {
            "children" : [
                2
            ],
            "name" : "RootNode_(gltf_orientation_matrix)",
            "rotation" : [
                -0.7071068286895752,
                0,
                0,
                0.7071068286895752
            ]
        },
        {
            "children" : [
                3
            ],
            "name" : "scenegltf",
            "scale" : [
                1.3200000524520874,
                1.340000033378601,
                1.3600000143051147
            ]
        },
        {
            "children" : [
                4
            ],
            "name" : "warehouse1.gltf",
            "scale" : [
                2,
                2.5,
                3.299999952316284
            ],
            "translation" : [
                -14.652156829833984,
                0,
                35.40419387817383
            ]
        }
    ],
    "materials" : [
        {
            "doubleSided" : true,
            "name" : "Material__17251",
            "normalTexture" : {
                "index" : 0,
                "texCoord" : 0
            },
            "pbrMetallicRoughness" : {
                "baseColorTexture" : {
                    "index" : 1,
                    "texCoord" : 0
                },
                "metallicFactor" : 0,
                "metallicRoughnessTexture" : {
                    "index" : 2,
                    "texCoord" : 0
                }
            }
        }
    ],
    "meshes" : [
        {
            "name" : "Mesh_1",
            "primitives" : [
                {
                    "attributes" : {
                        "POSITION" : 0,
                        "NORMAL" : 1,
                        "TEXCOORD_0" : 2
                    },
                    "indices" : 3,
                    "material" : 0
                }
            ]
        }
    ],
    "textures" : [
        {
            "sampler" : 0,
            "source" : 0
        },
        {
            "sampler" : 0,
            "source" : 1
        },
        {
            "sampler" : 0,
            "source" : 2
        }
    ],
    "images" : [
        {
            "bufferView" : 4,
            "mimeType" : "image/png",
            "name" : "Image_2"
        },
        {
            "bufferView" : 5,
            "mimeType" : "image/png",
            "name" : "Image_1"
        },
        {
            "bufferView" : 6,
            "mimeType" : "image/png",
            "name" : "Image_0"
        }
    ],
    "accessors" : [
        {
            "bufferView" : 0,
            "componentType" : 5126,
            "count" : 3088,
            "max" : [
                12.856216430664062,
                12.654542922973633,
                18.108495712280273
            ],
            "min" : [
                -12.855111122131348,
                -12.611913681030273,
                0.04768799990415573
            ],
            "type" : "VEC3"
        },
        {
            "bufferView" : 1,
            "componentType" : 5126,
            "count" : 3088,
            "type" : "VEC3"
        },
        {
            "bufferView" : 2,
            "componentType" : 5126,
            "count" : 3088,
            "type" : "VEC2"
        },
        {
            "bufferView" : 3,
            "componentType" : 5123,
            "count" : 3240,
            "type" : "SCALAR"
        }
    ],
    "bufferViews" : [
        {
            "buffer" : 0,
            "byteLength" : 37056,
            "byteOffset" : 0
        },
        {
            "buffer" : 0,
            "byteLength" : 37056,
            "byteOffset" : 37056
        },
        {
            "buffer" : 0,
            "byteLength" : 24704,
            "byteOffset" : 74112
        },
        {
            "buffer" : 0,
            "byteLength" : 6480,
            "byteOffset" : 98816
        },
        {
            "buffer" : 0,
            "byteLength" : 324631,
            "byteOffset" : 105296
        },
        {
            "buffer" : 0,
            "byteLength" : 1516872,
            "byteOffset" : 429928
        },
        {
            "buffer" : 0,
            "byteLength" : 670960,
            "byteOffset" : 1946800
        }
    ],
    "samplers" : [
        {
            "magFilter" : 9729,
            "minFilter" : 9986
        }
    ],
    "buffers" : [
        {
            "byteLength" : 2617760,
            "uri" : "data:application/octet-stream;base64,"
        }
    ]
}
